<svg id="visual" viewBox="0 0 960 540" width="960" height="540" xmlns="http://www.w3.org/2000/svg" xmlns:xlink="http://www.w3.org/1999/xlink" version="1.1"><g stroke-width="1" stroke-linejoin="bevel"><path d="M469.7 280L541.3 251L531.3 196Z" fill="#3e4b53" stroke="#3e4b53"></path><path d="M384.7 145L365 226L469.7 280Z" fill="#3e4b53" stroke="#3e4b53"></path><path d="M531.3 196L384.7 145L469.7 280Z" fill="#16232d" stroke="#16232d"></path><path d="M608 153L539.3 100L531.3 196Z" fill="#ced5d7" stroke="#ced5d7"></path><path d="M531.3 196L408.7 89L384.7 145Z" fill="#b4bcbf" stroke="#b4bcbf"></path><path d="M541.3 251L608 153L531.3 196Z" fill="#16232d" stroke="#16232d"></path><path d="M556.3 384L622 290L541.3 251Z" fill="#b4bcbf" stroke="#b4bcbf"></path><path d="M541.3 251L622 290L608 153Z" fill="#6a767c" stroke="#6a767c"></path><path d="M408.7 89L373 124L384.7 145Z" fill="#e9eeef" stroke="#e9eeef"></path><path d="M384.7 145L306 238L365 226Z" fill="#b4bcbf" stroke="#b4bcbf"></path><path d="M345 401L451.7 390L469.7 280Z" fill="#3e4b53" stroke="#3e4b53"></path><path d="M469.7 280L556.3 384L541.3 251Z" fill="#e9eeef" stroke="#e9eeef"></path><path d="M539.3 100L408.7 89L531.3 196Z" fill="#b4bcbf" stroke="#b4bcbf"></path><path d="M451.7 390L556.3 384L469.7 280Z" fill="#9aa4a8" stroke="#9aa4a8"></path><path d="M373 124L306 238L384.7 145Z" fill="#00101c" stroke="#00101c"></path><path d="M365 226L345 401L469.7 280Z" fill="#828d92" stroke="#828d92"></path><path d="M757.7 214L635 98L608 153Z" fill="#ced5d7" stroke="#ced5d7"></path><path d="M608 153L635 98L539.3 100Z" fill="#e9eeef" stroke="#e9eeef"></path><path d="M539.3 100L482.3 0L408.7 89Z" fill="#00101c" stroke="#00101c"></path><path d="M345 401L436.7 422L451.7 390Z" fill="#536067" stroke="#536067"></path><path d="M451.7 390L436.7 422L556.3 384Z" fill="#3e4b53" stroke="#3e4b53"></path><path d="M326 392L345 401L365 226Z" fill="#3e4b53" stroke="#3e4b53"></path><path d="M306 238L326 392L365 226Z" fill="#16232d" stroke="#16232d"></path><path d="M654 0L482.3 0L539.3 100Z" fill="#2a3640" stroke="#2a3640"></path><path d="M290 0L253.3 82L373 124Z" fill="#ced5d7" stroke="#ced5d7"></path><path d="M482.3 0L427.7 0L408.7 89Z" fill="#6a767c" stroke="#6a767c"></path><path d="M210.3 292L220.3 306L306 238Z" fill="#2a3640" stroke="#2a3640"></path><path d="M676 405L722.7 308L622 290Z" fill="#3e4b53" stroke="#3e4b53"></path><path d="M622 290L757.7 214L608 153Z" fill="#828d92" stroke="#828d92"></path><path d="M556.3 384L676 405L622 290Z" fill="#828d92" stroke="#828d92"></path><path d="M647 492L676 405L556.3 384Z" fill="#ced5d7" stroke="#ced5d7"></path><path d="M722.7 308L757.7 214L622 290Z" fill="#6a767c" stroke="#6a767c"></path><path d="M479.3 540L575.3 498L436.7 422Z" fill="#b4bcbf" stroke="#b4bcbf"></path><path d="M436.7 422L575.3 498L556.3 384Z" fill="#00101c" stroke="#00101c"></path><path d="M253.3 82L306 238L373 124Z" fill="#b4bcbf" stroke="#b4bcbf"></path><path d="M306 238L220.3 306L326 392Z" fill="#6a767c" stroke="#6a767c"></path><path d="M290 0L373 124L408.7 89Z" fill="#00101c" stroke="#00101c"></path><path d="M768.7 72L654 0L635 98Z" fill="#b4bcbf" stroke="#b4bcbf"></path><path d="M635 98L654 0L539.3 100Z" fill="#b4bcbf" stroke="#b4bcbf"></path><path d="M180.3 151L210.3 292L306 238Z" fill="#16232d" stroke="#16232d"></path><path d="M676 405L795.7 423L722.7 308Z" fill="#ced5d7" stroke="#ced5d7"></path><path d="M575.3 498L647 492L556.3 384Z" fill="#2a3640" stroke="#2a3640"></path><path d="M427.7 0L290 0L408.7 89Z" fill="#9aa4a8" stroke="#9aa4a8"></path><path d="M446.7 540L479.3 540L436.7 422Z" fill="#828d92" stroke="#828d92"></path><path d="M575.3 498L640 540L647 492Z" fill="#00101c" stroke="#00101c"></path><path d="M446.7 540L436.7 422L331 540Z" fill="#ced5d7" stroke="#ced5d7"></path><path d="M436.7 422L345 401L331 540Z" fill="#b4bcbf" stroke="#b4bcbf"></path><path d="M757.7 214L789.7 144L635 98Z" fill="#e9eeef" stroke="#e9eeef"></path><path d="M876.3 199L789.7 144L757.7 214Z" fill="#828d92" stroke="#828d92"></path><path d="M331 540L345 401L326 392Z" fill="#b4bcbf" stroke="#b4bcbf"></path><path d="M789.7 144L768.7 72L635 98Z" fill="#3e4b53" stroke="#3e4b53"></path><path d="M110.7 0L180.3 151L253.3 82Z" fill="#16232d" stroke="#16232d"></path><path d="M253.3 82L180.3 151L306 238Z" fill="#b4bcbf" stroke="#b4bcbf"></path><path d="M479.3 540L640 540L575.3 498Z" fill="#828d92" stroke="#828d92"></path><path d="M647 492L795.7 423L676 405Z" fill="#6a767c" stroke="#6a767c"></path><path d="M722.7 308L857.3 264L757.7 214Z" fill="#2a3640" stroke="#2a3640"></path><path d="M108.7 346L228.3 499L220.3 306Z" fill="#828d92" stroke="#828d92"></path><path d="M228.3 499L331 540L326 392Z" fill="#00101c" stroke="#00101c"></path><path d="M180.3 151L146.7 235L210.3 292Z" fill="#3e4b53" stroke="#3e4b53"></path><path d="M228.3 499L326 392L220.3 306Z" fill="#3e4b53" stroke="#3e4b53"></path><path d="M290 0L230.3 0L253.3 82Z" fill="#9aa4a8" stroke="#9aa4a8"></path><path d="M180.3 151L110.7 204L146.7 235Z" fill="#9aa4a8" stroke="#9aa4a8"></path><path d="M798.3 38L758.7 0L768.7 72Z" fill="#ced5d7" stroke="#ced5d7"></path><path d="M768.7 72L758.7 0L654 0Z" fill="#6a767c" stroke="#6a767c"></path><path d="M795.7 540L795.7 423L647 492Z" fill="#e9eeef" stroke="#e9eeef"></path><path d="M862.3 0L798.3 38L960 82Z" fill="#16232d" stroke="#16232d"></path><path d="M789.7 144L798.3 38L768.7 72Z" fill="#6a767c" stroke="#6a767c"></path><path d="M823.3 398L857.3 264L722.7 308Z" fill="#ced5d7" stroke="#ced5d7"></path><path d="M795.7 423L823.3 398L722.7 308Z" fill="#00101c" stroke="#00101c"></path><path d="M108.7 346L220.3 306L210.3 292Z" fill="#e9eeef" stroke="#e9eeef"></path><path d="M74.7 130L110.7 204L180.3 151Z" fill="#828d92" stroke="#828d92"></path><path d="M146.7 235L108.7 346L210.3 292Z" fill="#b4bcbf" stroke="#b4bcbf"></path><path d="M960 253L876.3 199L857.3 264Z" fill="#b4bcbf" stroke="#b4bcbf"></path><path d="M857.3 264L876.3 199L757.7 214Z" fill="#828d92" stroke="#828d92"></path><path d="M110.7 204L108.7 346L146.7 235Z" fill="#9aa4a8" stroke="#9aa4a8"></path><path d="M960 383L874.3 371L960 468Z" fill="#9aa4a8" stroke="#9aa4a8"></path><path d="M823.3 398L874.3 371L857.3 264Z" fill="#828d92" stroke="#828d92"></path><path d="M880.3 540L823.3 398L795.7 423Z" fill="#536067" stroke="#536067"></path><path d="M118.7 540L216.3 540L228.3 499Z" fill="#16232d" stroke="#16232d"></path><path d="M228.3 499L216.3 540L331 540Z" fill="#2a3640" stroke="#2a3640"></path><path d="M110.7 0L74.7 130L180.3 151Z" fill="#828d92" stroke="#828d92"></path><path d="M110.7 204L0 287L108.7 346Z" fill="#b4bcbf" stroke="#b4bcbf"></path><path d="M640 540L795.7 540L647 492Z" fill="#ced5d7" stroke="#ced5d7"></path><path d="M960 82L798.3 38L789.7 144Z" fill="#b4bcbf" stroke="#b4bcbf"></path><path d="M798.3 38L862.3 0L758.7 0Z" fill="#e9eeef" stroke="#e9eeef"></path><path d="M230.3 0L110.7 0L253.3 82Z" fill="#e9eeef" stroke="#e9eeef"></path><path d="M0 426L91.7 449L108.7 346Z" fill="#16232d" stroke="#16232d"></path><path d="M108.7 346L91.7 449L228.3 499Z" fill="#9aa4a8" stroke="#9aa4a8"></path><path d="M874.3 371L960 253L857.3 264Z" fill="#e9eeef" stroke="#e9eeef"></path><path d="M876.3 199L960 82L789.7 144Z" fill="#b4bcbf" stroke="#b4bcbf"></path><path d="M960 383L960 253L874.3 371Z" fill="#828d92" stroke="#828d92"></path><path d="M960 253L960 201L876.3 199Z" fill="#828d92" stroke="#828d92"></path><path d="M91.7 449L118.7 540L228.3 499Z" fill="#ced5d7" stroke="#ced5d7"></path><path d="M960 201L960 82L876.3 199Z" fill="#3e4b53" stroke="#3e4b53"></path><path d="M0 68L0 215L74.7 130Z" fill="#828d92" stroke="#828d92"></path><path d="M74.7 130L0 215L110.7 204Z" fill="#16232d" stroke="#16232d"></path><path d="M91.7 449L0 540L118.7 540Z" fill="#ced5d7" stroke="#ced5d7"></path><path d="M960 468L874.3 371L823.3 398Z" fill="#9aa4a8" stroke="#9aa4a8"></path><path d="M0 215L0 287L110.7 204Z" fill="#9aa4a8" stroke="#9aa4a8"></path><path d="M795.7 540L880.3 540L795.7 423Z" fill="#9aa4a8" stroke="#9aa4a8"></path><path d="M0 287L0 304L108.7 346Z" fill="#6a767c" stroke="#6a767c"></path><path d="M110.7 0L0 68L74.7 130Z" fill="#9aa4a8" stroke="#9aa4a8"></path><path d="M960 82L960 0L862.3 0Z" fill="#e9eeef" stroke="#e9eeef"></path><path d="M880.3 540L960 468L823.3 398Z" fill="#ced5d7" stroke="#ced5d7"></path><path d="M0 304L0 426L108.7 346Z" fill="#00101c" stroke="#00101c"></path><path d="M110.7 0L0 0L0 68Z" fill="#2a3640" stroke="#2a3640"></path><path d="M880.3 540L960 540L960 468Z" fill="#536067" stroke="#536067"></path><path d="M0 426L0 540L91.7 449Z" fill="#ced5d7" stroke="#ced5d7"></path></g></svg>